<?xml version="1.0" encoding="utf-8"?>
<!-- Generator: Adobe Illustrator 16.0.0, SVG Export Plug-In . SVG Version: 6.00 Build 0)  -->
<!DOCTYPE svg PUBLIC "-//W3C//DTD SVG 1.1//EN" "http://www.w3.org/Graphics/SVG/1.1/DTD/svg11.dtd">
<svg version="1.1"
	 id="svg2" xmlns:cc="http://creativecommons.org/ns#" xmlns:dc="http://purl.org/dc/elements/1.1/" xmlns:rdf="http://www.w3.org/1999/02/22-rdf-syntax-ns#" xmlns:svg="http://www.w3.org/2000/svg"
	 xmlns="http://www.w3.org/2000/svg" xmlns:xlink="http://www.w3.org/1999/xlink" x="0px" y="0px" width="297.45px"
	 height="337.342px" viewBox="0 0 297.45 337.342" enable-background="new 0 0 297.45 337.342" xml:space="preserve">
<title  id="title4">Slice 1</title>
<path fill="#D4B830" d="M0,0l27.071,303.62l121.472,33.722l121.811-33.771L297.45,0H0z M138.725,267.6
	c-92.583-18.464,0,0-92.935-18.45l-5.216-58.467c12.459,0,37.379,0,37.379,0l2.652,29.697l20.741,3.035V96.71l-42.319-0.001
	l-3.453-37.254h83.151V267.6z M253.797,96.694H198v38.132h52.479L240.159,249.15l-81.091,18.451v-38.819l46.284-8.426l4.484-48.294
	h-50.769V59.455h98.033L253.797,96.694z"/>
</svg>
z"/>
		<path id="path24" fill="#FFFFFF" d="M83.796,0.125H0.645l3.453,37.254l42.319,0.001v126.706l-20.741-3.035l-2.652-29.697
			c0,0-24.919,0-37.379,0l5.216,58.467c92.935,18.45,0.352-0.014,92.935,18.45V0.125z"/>
	</g>
</g>
</svg>
333,-37.23899948 -98.0332,0 0,112.60699748 50.7682,0 -4.484,48.294 -46.284,8.426 0,38.819 81.091,-18.451 z"
         id="path18"
         style="fill:#4d4d4d;fill-opacity:1" />
      <path
         d="m 83.795999,0.12500252 -83.15099941,0 3.45300001,37.25399948 42.3189994,3.4e-4 0,126.706188 -20.741,-3.03453 -2.652,-29.698 c 0,0 -24.9193323,0 -37.378999,0 l 5.2159997,58.467 c 92.9349993,18.45053 0.3522911,-0.0135 92.9349993,18.45053 z"
         id="path24"
         style="fill:#000000;fill-opacity:1" />
    </g>
  </g>
</svg>
